<?xml version="1.0" encoding="UTF-8" standalone="no"?>
<!-- Generator: Adobe Illustrator 16.0.3, SVG Export Plug-In . SVG Version: 6.00 Build 0)  -->
<svg version="1.1" id="Capa_1" x="0px" y="0px" width="755.30902" height="716.34668" viewBox="0 0 755.30899 716.34667" enable-background="new 0 0 595.28 841.89" xml:space="preserve" sodipodi:docname="Logo del INECC.svg" inkscape:version="1.1 (c68e22c387, 2021-05-23)" xmlns:inkscape="http://www.inkscape.org/namespaces/inkscape" xmlns:sodipodi="http://sodipodi.sourceforge.net/DTD/sodipodi-0.dtd" xmlns:xlink="http://www.w3.org/1999/xlink" xmlns="http://www.w3.org/2000/svg" xmlns:svg="http://www.w3.org/2000/svg"><defs id="defs227"><linearGradient inkscape:collect="always" id="linearGradient39201"><stop style="stop-color:#101314;stop-opacity:1;" offset="0" id="stop39197"/><stop style="stop-color:#5ba0c8;stop-opacity:1" offset="1" id="stop39199"/></linearGradient><linearGradient id="linearGradient39160" inkscape:swatch="solid"><stop style="stop-color:#101314;stop-opacity:1;" offset="0" id="stop39158"/></linearGradient><linearGradient inkscape:collect="always" id="linearGradient16264"><stop style="stop-color:#4f8f4a;stop-opacity:1" offset="0" id="stop16260"/><stop style="stop-color:#3d6d7b;stop-opacity:1" offset="1" id="stop16262"/></linearGradient><linearGradient inkscape:collect="always" id="linearGradient3740"><stop style="stop-color:#91b650;stop-opacity:1" offset="0" id="stop3736"/><stop style="stop-color:#628f3f;stop-opacity:1" offset="1" id="stop3738"/></linearGradient><radialGradient inkscape:collect="always" xlink:href="#linearGradient3740" id="radialGradient3742" cx="126.22076" cy="400.30865" fx="126.22076" fy="400.30865" r="68.128738" gradientTransform="matrix(0.55810023,-0.46977285,0.40498395,0.48112963,-106.34166,267.00339)" gradientUnits="userSpaceOnUse"/><radialGradient inkscape:collect="always" xlink:href="#linearGradient3740" id="radialGradient9273" cx="102.94749" cy="356.67596" fx="102.94749" fy="356.67596" r="67.777138" gradientTransform="matrix(0.4042113,-0.24732208,0.35182512,0.57500603,-64.152612,187.59685)" gradientUnits="userSpaceOnUse"/><radialGradient inkscape:collect="always" xlink:href="#linearGradient16264" id="radialGradient14581" cx="168.63933" cy="423.32162" fx="168.63933" fy="423.32162" r="40.107536" gradientTransform="matrix(1.0727911,-0.07605978,0.06771446,0.95508395,-41.338095,32.295353)" gradientUnits="userSpaceOnUse"/><radialGradient inkscape:collect="always" xlink:href="#linearGradient3740" id="radialGradient23952" cx="92.077835" cy="483.67029" fx="92.077835" fy="483.67029" r="40.620117" gradientTransform="matrix(1,0,0,0.74181503,0,122.13707)" gradientUnits="userSpaceOnUse"/><linearGradient inkscape:collect="always" xlink:href="#linearGradient39201" id="linearGradient39203" x1="135.11305" y1="470.26727" x2="145.69769" y2="470.80389" gradientUnits="userSpaceOnUse"/></defs><sodipodi:namedview id="namedview225" pagecolor="#ffffff" bordercolor="#666666" borderopacity="1.0" inkscape:pageshadow="2" inkscape:pageopacity="0.0" inkscape:pagecheckerboard="0" showgrid="false" fit-margin-top="0" fit-margin-left="0" fit-margin-right="0" fit-margin-bottom="0" inkscape:zoom="0.9882526" inkscape:cx="415.37963" inkscape:cy="379.96358" inkscape:window-width="1920" inkscape:window-height="1017" inkscape:window-x="1912" inkscape:window-y="-8" inkscape:window-maximized="1" inkscape:current-layer="Capa_1"/>
<g id="g222" transform="matrix(4.4172602,0,0,4.4172602,-243.06235,-1516.7145)">
	<g id="g220">
		
		<path id="path4" d="m 169.59766,359.4043 c -1.62472,-0.008 -3.25119,0.0252 -4.88282,0.0996 -5.87436,0.26697 -11.68661,0.95511 -17.41601,2.29882 -5e-4,-2.6e-4 -0.001,2.7e-4 -0.002,0 -2.9e-4,-1.5e-4 2.8e-4,-0.002 0,-0.002 -3.501,0.621 -6.88982,1.66049 -10.25782,2.77149 -13.662,4.508 -25.89031,11.60412 -37.07031,20.57812 -5.112,4.103 -9.972062,8.48636 -14.414062,13.31836 0,0 0,0.002 0,0.002 -2.191,2.118 -4.221672,4.382 -6.138672,6.75 -0.938,0.871 -1.681282,1.91149 -2.488282,2.89649 -7.002,8.542 -13.177281,17.63648 -18.363281,27.39648 -0.724,1.362 -0.730078,1.36942 0.794922,1.85742 5.527,1.769 11.182984,2.89508 16.958984,3.45508 7.964,0.771 15.857875,0.43058 23.671875,-1.35742 3.057996,-0.541 5.935146,-1.68839 8.869146,-2.65039 7.493,-2.81 14.1681,-6.96205 20.1621,-12.24805 0.686,-0.604 0.80047,-1.0954 0.48047,-1.9414 -3.643,-9.632 -9.08345,-18.10579 -16.31445,-25.42579 -1.701,-1.721 -3.47305,-3.37404 -5.62305,-4.99804 1.5,11.746 5.58307,22.21831 12.03907,31.82031 -2.456,-2.116 -4.70816,-4.39747 -6.78516,-6.85547 -6.512,-7.707 -11.17183,-16.40526 -14.048829,-26.07226 -0.277,-0.931 -0.0088,-1.02735 0.826172,-1.02735 3.525997,-0.002 7.026857,0.30964 10.505857,0.80664 12.273,1.754 23.6386,5.98699 34.0586,12.70899 0.834,0.539 1.16654,0.52095 1.68554,-0.37305 3.186,-5.494 6.34971,-11.00367 9.72071,-16.38867 2.271,-3.629 4.87861,-6.99745 7.72461,-10.18945 0.603,-0.865 1.52259,-1.36839 2.30859,-2.02539 2.708,-2.258 5.57134,-4.28425 8.77734,-5.78126 2.591,-1.211 5.28455,-2.10654 8.18555,-1.93554 4.574,0.27 7.52256,2.93334 9.60156,6.77734 0.429,0.793 0.80619,1.61324 1.24219,2.49024 1.652,-4.088 1.06648,-10.02283 -1.22852,-13.54883 -0.411,-0.632 -0.92704,-0.91874 -1.62304,-1.05274 -6.93713,-1.32925 -13.91659,-2.11825 -20.95703,-2.15429 z" style="fill:url(#radialGradient3742);fill-opacity:1"/>
		<path fill-rule="evenodd" clip-rule="evenodd" fill="#757577" d="m 340.615,377.648 c 0,-4.09 0.09,-8.194 -0.026,-12.292 -0.102,-3.59 -0.397,-7.173 -0.777,-10.752 -0.223,-2.089 -1.081,-3.396 -3.105,-3.996 -1.529,-0.453 -3.011,-1.065 -4.535,-1.534 -0.75,-0.23 -1.162,-0.457 -0.857,-1.371 0.3,-0.902 0.449,-1.862 0.595,-2.807 0.12,-0.782 0.491,-0.998 1.278,-0.994 7.359,0.033 14.719,0.031 22.079,0.002 0.784,-0.003 1.161,0.214 1.279,1.01 0.146,0.985 0.34,1.972 0.622,2.926 0.213,0.72 -0.022,0.988 -0.678,1.208 -1.702,0.569 -3.369,1.244 -5.077,1.793 -0.78,0.251 -1.026,0.698 -1.108,1.467 -0.45,4.215 -0.609,8.444 -0.749,12.677 -0.349,10.629 -0.431,21.262 -0.424,31.895 10e-4,0.721 -0.138,1.066 -0.954,1.127 -2.907,0.219 -5.812,0.491 -8.709,0.805 -0.731,0.079 -1.144,-0.101 -1.553,-0.727 -7.504,-11.456 -16.027,-22.138 -24.813,-32.619 -0.17,-0.203 -0.348,-0.4 -0.499,-0.574 0,2.325 -0.037,4.621 0.008,6.914 0.11,5.712 0.306,11.418 0.953,17.102 0.14,1.229 0.683,1.95 1.788,2.426 2.137,0.921 4.374,1.511 6.612,2.092 0.843,0.219 1.096,0.501 0.814,1.383 -0.375,1.171 -0.217,2.778 -0.963,3.49 -0.769,0.733 -2.362,0.213 -3.594,0.216 -6.68,0.019 -13.359,-0.01 -20.038,0.03 -0.94,0.005 -1.367,-0.232 -1.466,-1.208 -0.092,-0.906 -0.367,-1.796 -0.587,-2.687 -0.158,-0.637 -0.056,-1.01 0.674,-1.233 1.563,-0.477 3.063,-1.184 4.644,-1.579 1.238,-0.31 1.52,-1.054 1.561,-2.128 0.092,-2.395 0.217,-4.789 0.308,-7.185 0.257,-6.715 0.24,-13.433 0.096,-20.148 -0.062,-2.91 -0.093,-5.828 -0.569,-8.72 -0.179,-1.082 -0.654,-1.82 -1.583,-2.377 -1.374,-0.825 -2.778,-1.589 -4.278,-2.141 -0.792,-0.291 -1.071,-0.661 -0.813,-1.488 0.367,-1.175 0.124,-2.767 0.969,-3.492 0.858,-0.735 2.377,-0.196 3.607,-0.234 4.394,-0.134 8.788,-0.239 13.182,-0.364 0.493,-0.014 0.871,-0.009 1.185,0.529 4.338,7.456 9.741,14.146 15.089,20.872 3.233,4.067 6.569,8.052 9.862,12.072 0.196,0.246 0.419,0.47 0.55,0.614 z" id="path6" style="fill:#757577;fill-opacity:1"/>
		<path fill-rule="evenodd" clip-rule="evenodd" fill="#cbd021" d="m 84.251,444.147 c 1.959,-0.139 3.908,-0.047 5.853,-0.208 9.638,-0.8 18.729,-3.453 27.282,-7.943 0.859,-0.451 1.249,-0.355 1.769,0.458 5.375,8.402 9.233,17.403 10.768,27.308 0.508,3.276 0.679,6.586 0.413,9.914 -0.872,10.885 4.689,20.38 14.928,25.574 0.386,0.195 0.776,0.386 1.142,0.662 -1.172,0.057 -2.265,-0.349 -3.354,-0.651 -13.638,-3.789 -26.151,-9.797 -36.959,-19.055 -11.106,-9.515 -18.519,-21.324 -21.803,-35.642 -0.027,-0.113 -0.023,-0.233 -0.039,-0.417 z" id="path8"/>
		<path fill-rule="evenodd" clip-rule="evenodd" fill="#757577" d="m 387.164,398.524 c -7.638,0 -15.276,-0.019 -22.914,0.023 -0.955,0.005 -1.352,-0.28 -1.458,-1.212 -0.099,-0.869 -0.272,-1.742 -0.536,-2.575 -0.247,-0.781 -0.089,-1.124 0.727,-1.368 1.641,-0.493 3.23,-1.157 4.87,-1.657 0.875,-0.267 1.136,-0.748 1.214,-1.629 0.322,-3.625 0.487,-7.256 0.485,-10.893 -0.003,-6.598 -0.012,-13.195 -0.084,-19.792 -0.021,-1.991 -0.206,-3.982 -0.575,-5.954 -0.201,-1.073 -0.749,-1.807 -1.626,-2.388 -1.376,-0.912 -2.872,-1.56 -4.433,-2.067 -0.58,-0.188 -0.853,-0.403 -0.626,-1.104 0.415,-1.277 0.098,-3.102 1.093,-3.78 0.909,-0.62 2.543,-0.202 3.857,-0.204 5.958,-0.008 11.917,0.015 17.875,-0.008 7.751,-0.031 15.501,-0.174 23.239,-0.648 0.783,-0.048 1.201,0.226 1.676,0.823 1.36,1.713 1.989,3.43 1.36,5.707 -0.881,3.187 -1.43,6.466 -2.074,9.715 -0.151,0.766 -0.451,1.088 -1.262,1.032 -2.031,-0.142 -4.066,-0.233 -6.102,-0.313 -0.842,-0.033 -1.215,-0.42 -1.381,-1.249 -0.472,-2.347 -1.05,-4.672 -1.531,-7.017 -0.148,-0.723 -0.448,-1.083 -1.206,-1.179 -4.417,-0.557 -8.841,-0.647 -13.28,-0.353 -0.616,0.041 -0.721,0.333 -0.75,0.823 -0.316,5.425 -0.534,10.854 -0.501,16.29 0.005,0.842 0.379,0.83 1.052,0.788 4.824,-0.301 9.65,-0.559 14.478,-0.813 1.37,-0.073 2.674,1.376 2.466,2.752 -0.245,1.618 -0.563,3.224 -0.816,4.84 -0.104,0.665 -0.368,0.902 -1.097,0.871 -4.829,-0.208 -9.66,-0.359 -14.49,-0.528 -1.578,-0.055 -1.587,-0.054 -1.577,1.471 0.024,3.954 0.076,7.905 0.659,11.832 0.23,1.552 1.052,2.422 2.537,2.789 3.512,0.869 7.049,0.554 10.604,0.382 2.136,-0.104 3.146,-0.939 3.502,-3.07 0.341,-2.034 1.111,-3.993 1.649,-5.997 0.185,-0.687 0.514,-0.945 1.244,-0.952 2.242,-0.021 4.471,0.203 6.706,0.279 1.041,0.036 1.351,0.557 1.348,1.493 -0.012,4.518 -0.013,9.035 0,13.553 0.003,0.986 -0.342,1.322 -1.407,1.314 -7.639,-0.053 -15.277,-0.027 -22.915,-0.027 z" id="path10" style="fill:#757577;fill-opacity:1"/>
		<path id="path12" d="m 170.28906,374.78711 c -0.13456,0.0266 -0.27884,0.0896 -0.43359,0.20508 -3.356,2.505 -6.29758,5.40372 -8.64258,8.88672 4e-5,7.3e-4 -4e-5,10e-4 0,0.002 -1.79525,2.24941 -3.30246,4.68971 -4.75,7.16992 0.001,-1.2e-4 0.003,1.2e-4 0.004,0 -0.001,8.5e-4 -0.003,10e-4 -0.004,0.002 -2.83,4.768 -5.64795,9.54193 -8.50195,14.29493 -0.387,0.645 0.0212,0.82532 0.41015,1.11132 3.902,2.867 7.53078,6.047 10.92579,9.5 0.52499,0.535 0.58725,0.79754 0.0312,1.39454 -3.14099,3.372 -4.48482,7.3677 -3.92382,11.9707 0.823,6.772 6.18022,12.01301 13.07422,12.79101 6.489,0.733 13.00707,-3.21617 15.20507,-9.45117 0.556,-1.577 1.325,-2.51153 2.875,-2.89453 0.115,-0.029 0.22104,-0.0878 0.33203,-0.13281 2.349,-0.648 4.73216,-0.88603 7.16016,-0.58203 1.443,0.272 2.85666,0.62059 4.22266,1.18359 0.67,0.276 0.7434,0.54105 0.3164,1.12305 -1.208,1.645 -2.49348,3.22608 -3.89648,4.70508 -15.507,16.354 -41.14547,17.91725 -58.60547,3.65625 -1.99,-1.626 -3.2743,-3.35005 -3.5293,-5.99805 -0.221,-2.295 -0.88289,-4.55961 -1.71289,-6.84961 -2.941,2.546 -5.90714,4.84869 -9.11914,6.80469 -0.753,0.459 -0.88028,0.73262 -0.36328,1.51562 3.198,4.849 5.79786,10.01238 7.75586,15.48438 0.343,0.961 0.90703,1.63893 1.70703,2.21093 11.368,8.133 24.1245,11.00179 37.8125,9.30079 12.396,-1.54 21.68397,-8.21027 28.16797,-18.82227 1.289,-2.109 2.61614,-4.23948 3.24414,-6.64648 0.778,-2.982 1.06778,-6.06172 1.17578,-9.13672 0.436,-12.475 -2.7389,-23.94569 -9.7539,-34.30469 -5.206,-7.689 -11.93671,-13.70591 -20.09571,-18.12891 -0.35475,-0.192 -0.6842,-0.44492 -1.08789,-0.36523 z" style="fill:url(#radialGradient14581);fill-opacity:1"/>
		<path fill-rule="evenodd" clip-rule="evenodd" fill="#757577" d="m 449.019,342.534 c 6.525,0.052 12.74,1.472 18.649,4.241 1.648,0.773 2.518,2.441 2.184,4.252 -0.739,4.002 -1.664,7.963 -2.581,11.927 -0.171,0.738 -0.455,0.964 -1.192,0.955 -2.278,-0.026 -4.549,-0.167 -6.818,-0.354 -0.603,-0.05 -0.852,-0.262 -0.969,-0.923 -0.491,-2.79 -1.087,-5.558 -2.056,-8.234 -0.279,-0.773 -0.717,-1.299 -1.455,-1.632 -5.062,-2.28 -10.187,-2.391 -15.374,-0.464 -0.732,0.272 -1.276,0.752 -1.729,1.407 -3.423,4.962 -4.883,10.521 -5.074,16.475 -0.123,3.831 0.3,7.58 1.774,11.153 2.773,6.719 8.64,10.267 15.897,9.632 1.633,-0.143 3.243,-0.386 4.798,-0.958 0.808,-0.297 1.317,-0.75 1.572,-1.609 0.748,-2.523 1.613,-5.012 2.331,-7.542 0.234,-0.826 0.598,-1.133 1.413,-1.054 2.426,0.234 4.87,0.115 7.298,0.387 0.721,0.081 0.924,0.306 0.936,1.013 0.054,3.316 0.232,6.63 0.227,9.945 -0.002,1.655 -0.701,3.076 -2.236,3.949 -4.442,2.526 -9.259,3.893 -14.295,4.494 -6.473,0.773 -12.854,0.399 -18.97,-2.062 -8.656,-3.484 -13.672,-9.996 -15.309,-19.079 -1.402,-7.778 -0.431,-15.243 3.969,-21.972 5.294,-8.096 12.978,-12.406 22.465,-13.696 1.509,-0.206 3.024,-0.254 4.545,-0.251 z" id="path14" style="fill:#757577;fill-opacity:1"/>
		<path fill-rule="evenodd" clip-rule="evenodd" fill="#757577" d="m 507.282,342.534 c 6.231,0.048 12.529,1.444 18.5,4.285 1.508,0.718 2.465,2.454 2.127,4.062 -0.851,4.06 -1.752,8.11 -2.626,12.165 -0.11,0.51 -0.26,0.863 -0.912,0.859 -2.359,-0.011 -4.708,-0.16 -7.058,-0.349 -0.609,-0.049 -0.854,-0.253 -0.977,-0.908 -0.517,-2.783 -1.105,-5.55 -2.059,-8.23 -0.293,-0.825 -0.773,-1.349 -1.546,-1.69 -5.074,-2.243 -10.196,-2.354 -15.375,-0.387 -0.703,0.268 -1.201,0.734 -1.63,1.343 -3.077,4.368 -4.525,9.298 -4.999,14.55 -0.426,4.719 -0.017,9.347 1.956,13.716 2.937,6.501 9.087,9.872 16.176,8.974 1.39,-0.176 2.754,-0.423 4.092,-0.851 0.909,-0.291 1.478,-0.808 1.757,-1.748 0.749,-2.524 1.592,-5.02 2.325,-7.548 0.202,-0.696 0.474,-1.043 1.22,-0.973 2.505,0.238 5.031,0.087 7.534,0.398 0.51,0.063 0.792,0.149 0.808,0.75 0.09,3.592 0.347,7.188 0.254,10.775 -0.034,1.317 -0.793,2.621 -2.168,3.375 -5.058,2.777 -10.488,4.205 -16.21,4.665 -5.807,0.466 -11.501,-0.003 -16.947,-2.185 -9.382,-3.759 -14.406,-10.891 -15.691,-20.76 -0.994,-7.635 0.269,-14.834 4.792,-21.219 5.342,-7.541 12.782,-11.592 21.859,-12.813 1.471,-0.2 2.946,-0.248 4.798,-0.256 z" id="path16" style="fill:#757577;fill-opacity:1"/>
		
		<path id="path20" style="fill:url(#radialGradient9273);fill-opacity:1;stroke:none;stroke-opacity:1" d="m 141.82422,343.36133 c -0.98498,-0.005 -1.9718,0.0355 -2.95703,0.14258 h -0.002 c -3.92433,-0.14878 -7.79903,0.30639 -11.65039,0.98828 -5.89398,1.04464 -11.63298,2.6247 -17.11328,5.07226 -0.002,-6e-5 -0.004,7e-5 -0.006,0 -2.07847,0.7848 -4.08948,1.71687 -5.99804,2.85547 l -0.002,0.002 c -2.27038,0.94992 -4.310082,2.31118 -6.380856,3.60742 -4.244,2.658 -8.224203,5.69131 -11.908203,9.07031 -2.875,2.636 -5.713047,5.33659 -8.123047,8.43359 -2.102,2.197 -3.94736,4.60599 -5.69336,7.08399 -9.645,13.692 -16.311593,28.50578 -16.933593,45.55078 -0.102,2.803 0.03363,5.60531 0.640625,8.57031 0.336,-0.553 0.56725,-0.91411 0.78125,-1.28711 2.345,-4.087 4.831781,-8.08553 7.425781,-12.01953 4.226,-6.409 8.880766,-12.49892 13.759765,-18.41992 1.844,-2.069 3.688157,-4.13708 5.535157,-6.20508 l -0.002,-0.002 c 0.182,-0.151 0.38392,-0.28408 0.544922,-0.45508 5.144999,-5.49 10.695626,-10.53453 16.640619,-15.14453 12.053,-9.347 25.29425,-16.36652 40.03125,-20.47852 3.22478,-0.89966 6.51197,-1.51707 9.75977,-2.30664 l 0.002,0.002 c 2.883,-0.398 5.76739,-0.79636 8.65039,-1.19336 3.108,-0.154 6.21522,-0.39932 9.32422,-0.44532 7.517,-0.11 14.97969,0.57289 22.42969,1.83789 -0.236,-0.428 -0.63866,-0.54623 -0.97266,-0.74023 -13.305,-7.711 -27.42214,-13.01 -42.86914,-14.25 -1.63187,-0.13125 -3.27135,-0.26143 -4.91406,-0.26953 z M 154.00391,349.5 c 2.57788,-0.0106 5.10656,0.45777 7.57812,1.46289 0.283,0.115 0.55778,0.25056 1.05078,0.47656 -2.236,0.865 -4.33615,1.57702 -6.03515,3.04102 -3.785,-0.586 -7.45768,-1.64205 -11.51368,-2.62305 1.862,-1.167 3.699,-1.40973 5.375,-2.05273 1.19188,-0.19719 2.37316,-0.29988 3.54493,-0.30469 z"/>
		<path fill-rule="evenodd" clip-rule="evenodd" fill="#757577" d="m 274.787,398.524 c -4.038,0 -8.077,-0.031 -12.114,0.022 -0.957,0.013 -1.354,-0.272 -1.458,-1.225 -0.098,-0.907 -0.342,-1.803 -0.583,-2.687 -0.185,-0.677 -0.017,-1.001 0.684,-1.22 1.637,-0.51 3.225,-1.182 4.871,-1.653 1.011,-0.29 1.268,-0.916 1.316,-1.826 0.141,-2.631 0.413,-5.26 0.442,-7.893 0.084,-7.435 0.164,-14.871 -0.05,-22.304 -0.06,-2.07 -0.177,-4.143 -0.566,-6.194 -0.229,-1.203 -0.838,-2.028 -1.864,-2.629 -1.315,-0.771 -2.683,-1.425 -4.136,-1.873 -0.67,-0.207 -0.893,-0.511 -0.709,-1.205 0.265,-1.002 0.494,-2.017 0.658,-3.04 0.114,-0.707 0.46,-0.891 1.135,-0.889 8.276,0.018 16.552,0.022 24.829,-0.005 0.778,-0.002 1.05,0.305 1.167,1.004 0.166,0.982 0.36,1.965 0.628,2.923 0.195,0.699 -0.011,0.996 -0.683,1.21 -1.633,0.522 -3.217,1.221 -4.872,1.646 -1.081,0.278 -1.232,0.938 -1.308,1.817 -0.278,3.225 -0.483,6.456 -0.484,9.691 -0.002,6.955 0.017,13.911 0.102,20.866 0.024,1.95 0.176,3.904 0.54,5.838 0.226,1.199 0.823,2.031 1.856,2.633 1.316,0.768 2.683,1.432 4.131,1.885 0.767,0.24 0.894,0.592 0.689,1.309 -0.262,0.918 -0.48,1.86 -0.598,2.807 -0.103,0.831 -0.5,1.009 -1.269,1.003 -4.118,-0.028 -8.236,-0.011 -12.354,-0.011 z" id="path22"/>
		
		<path id="path26" d="m 63.263672,442.92773 c 0.768,2.877 1.637484,5.59454 2.646484,8.26954 2.628,6.969 5.863,13.62385 10.125,19.75585 0.204,0.33801 0.392188,0.68872 0.617188,1.01172 3.106,4.471 6.601265,8.60885 10.572265,12.33985 7.775,7.307 16.719941,12.58858 26.960941,15.64258 9.907,3.07 20.04136,3.73454 30.31836,2.93554 -0.974,-0.366 -1.96513,-0.60637 -2.95313,-0.85937 -6.58342,-1.67986 -12.86537,-4.17224 -19.00586,-7.04492 0,0 -0.002,0 -0.002,0 -0.87049,-0.47474 -1.73683,-0.95615 -2.61133,-1.42188 -12.635,-6.735 -23.175562,-15.75655 -30.726562,-28.06055 -2.173,-3.54 -3.865859,-7.31323 -5.505859,-11.11523 -1.018,-2.969 -2.010922,-5.94748 -2.669922,-9.02148 -0.172,-0.80101 -0.476985,-1.07574 -1.333985,-1.05274 -2.756,0.074 -5.503,-0.16853 -8.25,-0.39453 -2.696999,-0.219 -5.36864,-0.61738 -8.18164,-0.98438 z" style="fill:url(#radialGradient23952);fill-opacity:1"/>
		
		<path id="path30" d="m 195.42578,449.91797 c -0.337,0.302 -0.59651,0.65 -0.85351,1 -1.547,2.1 -3.29232,4.0222 -5.32032,5.6582 -9.911,7.999 -21.40498,9.95705 -33.70898,8.74805 -3.459,-0.34 -6.82155,-1.18272 -10.18555,-2.01172 -1.122,-0.383 -2.24423,-0.76544 -3.36523,-1.14844 -6.6e-4,6.7e-4 -0.001,10e-4 -0.002,0.002 0,-6.6e-4 0,-0.001 0,-0.002 -0.882,-0.335 -1.76253,-0.6689 -2.64453,-1.0039 v 0.002 c -1.039,-0.474 -2.07914,-0.94788 -3.11914,-1.42188 -1.643,-0.914 -3.28483,-1.82859 -5.04883,-2.80859 0.032,0.335 0.0245,0.49458 0.0625,0.64258 1.35,5.216 1.94139,10.50453 1.65039,15.89453 -0.10499,1.953 -0.16689,3.91233 0.16211,5.86133 0.313,1.853 0.29004,1.85756 2.20704,1.97656 0.13425,0.0527 0.25477,0.0823 0.36328,0.0898 1.14715,0.27062 2.31311,0.38047 3.49414,0.36329 0.942,0.304 1.91,0.23398 2.875,0.20898 3.1e-4,3.2e-4 0.002,-3.2e-4 0.002,0 1.12,0 2.24033,0.002 3.36133,0.002 2.449,0.197 4.88048,-0.12348 7.27148,-0.52148 17.778,-2.96 31.39355,-12.14649 40.81055,-27.52149 0.778,-1.27 1.55628,-2.55476 1.98828,-4.00976 z" style="fill:url(#linearGradient39203);fill-opacity:1"/>
		
		
		
		
		
		
		
		<path fill-rule="evenodd" clip-rule="evenodd" fill="#989898" d="m 302.381,498.136 c 1.708,-2.863 3.319,-5.572 4.939,-8.275 0.469,-0.783 2.344,-1.281 3.145,-0.872 0.327,0.168 0.276,0.456 0.276,0.721 0.006,4.478 0,8.955 0.01,13.433 0.001,0.482 -0.135,0.69 -0.664,0.746 -2.467,0.258 -2.55,0.202 -2.55,-2.238 0,-2.063 0,-4.126 0,-6.188 -0.077,-0.028 -0.155,-0.057 -0.232,-0.085 -1.159,1.924 -2.328,3.842 -3.476,5.772 -1.051,1.768 -1.945,1.784 -2.99,0.05 -1.112,-1.843 -2.242,-3.675 -3.588,-5.492 0,1.639 0,3.276 0,4.914 0,0.56 0.005,1.12 -10e-4,1.679 -0.018,1.763 0.201,1.577 -1.629,1.572 -1.961,-0.007 -1.686,0.248 -1.693,-1.732 -0.014,-3.997 0.021,-7.995 -0.023,-11.993 -0.01,-0.903 0.194,-1.191 1.169,-1.248 1.339,-0.077 2.076,0.382 2.719,1.547 1.404,2.545 2.972,5.004 4.588,7.689 z" id="path46" style="fill:#757577;fill-opacity:1"/>
		<path fill-rule="evenodd" clip-rule="evenodd" fill="#989898" d="m 423.514,495.372 c -1.263,2.099 -2.546,4.186 -3.774,6.305 -0.301,0.519 -0.628,0.714 -1.222,0.726 -0.631,0.013 -0.925,-0.297 -1.211,-0.774 -1.205,-2.005 -2.434,-3.996 -3.868,-5.943 0,2.332 -0.039,4.664 0.02,6.993 0.022,0.911 -0.189,1.252 -1.177,1.225 -2.197,-0.061 -2.198,-0.005 -2.198,-2.217 0,-3.876 0.028,-7.752 -0.021,-11.627 -0.012,-0.902 0.26,-1.095 1.139,-1.153 1.362,-0.091 2.147,0.338 2.818,1.577 1.385,2.556 2.977,5 4.576,7.646 1.43,-2.394 2.787,-4.668 4.146,-6.942 0.184,-0.309 0.365,-0.618 0.551,-0.925 0.763,-1.262 1.708,-1.631 3.152,-1.316 0.51,0.11 0.497,0.433 0.497,0.794 0.002,4.436 -0.006,8.87 0.011,13.305 0.003,0.613 -0.208,0.816 -0.829,0.848 -2.389,0.123 -2.388,0.146 -2.388,-2.268 0,-2.059 0,-4.118 0,-6.178 -0.075,-0.028 -0.148,-0.052 -0.222,-0.076 z" id="path48" style="fill:#757577;fill-opacity:1"/>
		<path id="path50" d="m 316.75,488.93555 c -0.55342,0.0122 -0.82695,0.18429 -0.82227,0.85742 0.024,4.431 0.0179,8.86001 0.006,13.29101 -0.002,0.543 0.16305,0.80288 0.74805,0.79688 2.874,-0.029 5.75414,0.0849 8.61914,-0.0801 2.901,-0.168 4.54605,-1.93975 4.37305,-4.34375 -0.117,-1.644 -1.08986,-2.67009 -2.50586,-3.37109 1.519,-1.333 2.02939,-2.62728 1.65039,-4.11328 -0.446,-1.738 -1.73656,-2.48489 -3.35156,-2.83789 -0.387,-0.084 -0.78374,-0.16107 -1.17774,-0.16407 -2.475,-0.02 -4.94983,-0.008 -7.42383,-0.0352 -0.0394,-5e-4 -0.0783,-8.2e-4 -0.11523,0 z m 4.16016,2.65039 c 0.29787,2.5e-4 0.59653,0 0.89453,0 0.001,0.019 0,0.0386 0,0.0566 0.675,0 1.36348,-0.0835 2.02148,0.0215 0.832,0.135 1.48725,0.57783 1.53125,1.54883 0.046,1.039 -0.62209,1.59931 -1.49609,1.69531 -1.296,0.142 -2.61674,0.0651 -3.92774,0.0781 -0.253,0.003 -0.50472,-0.0642 -0.51171,-0.36719 -0.02,-0.873 -0.0228,-1.74809 -0.008,-2.62109 0.007,-0.375 0.31257,-0.40716 0.60156,-0.41016 0.2985,-0.002 0.59666,-0.002 0.89454,-0.002 z m -0.73047,6.01367 c 1.273,0.042 2.55322,-0.0308 3.82422,0.0332 1.378,0.07 2.0977,0.74069 2.0957,1.80469 -10e-4,1.063 -0.74223,1.69658 -2.11523,1.76758 -0.636,0.033 -1.27511,0.006 -1.91211,0.006 -2.826,0.026 -2.81132,0.0262 -2.69532,-2.75977 0.023,-0.586 0.14574,-0.87356 0.80274,-0.85156 z" style="fill:#757577;fill-opacity:1"/>
		<path fill-rule="evenodd" clip-rule="evenodd" fill="#999999" d="m 271.09,440.681 c 0,2.437 -0.03,4.873 0.017,7.309 0.016,0.837 -0.138,1.204 -1.098,1.191 -2.458,-0.031 -2.459,0.019 -2.459,-2.449 0,-3.797 0.028,-7.594 -0.021,-11.39 -0.012,-0.908 0.266,-1.121 1.149,-1.152 1.249,-0.045 2.128,0.255 2.934,1.314 1.929,2.537 4.013,4.955 6.258,7.695 0,-1.866 0,-3.429 0,-4.992 0,-0.519 0,-1.038 0,-1.559 0,-2.59 0.306,-2.829 2.941,-2.433 0.468,0.07 0.601,0.271 0.6,0.694 -0.004,4.516 -0.002,9.032 -0.004,13.548 0,0.233 0.014,0.477 -0.233,0.632 -0.627,0.394 -2.895,-0.063 -3.407,-0.692 -1.941,-2.382 -3.884,-4.764 -5.824,-7.148 -0.196,-0.24 -0.372,-0.497 -0.557,-0.746 -0.098,0.059 -0.197,0.119 -0.296,0.178 z" id="path52" style="fill:#757577;fill-opacity:1"/>
		<path id="path54" d="m 264.98438,461.52539 c -1.84291,-0.0283 -3.69719,0.1293 -5.53907,0.0762 -0.711,-0.02 -0.52434,0.57861 -0.52734,0.97461 -0.015,2.118 -0.008,4.23456 -0.008,6.35156 0,2.238 0.0102,4.47494 -0.008,6.71094 -0.004,0.565 0.0983,0.89672 0.7793,0.88672 2.477,-0.038 4.95773,0.0725 7.42774,-0.0625 3.737,-0.205 6.65153,-3.01031 6.89453,-6.44531 0.304,-4.29 -1.74775,-7.29925 -5.71875,-8.15625 -1.09275,-0.23625 -2.19504,-0.31898 -3.30078,-0.33594 z m 0.17968,2.91797 c 0.71638,-0.004 1.43027,0.038 2.13477,0.25195 2.357,0.714 3.39023,2.44789 3.11523,5.21289 -0.196,1.972 -1.91322,3.53308 -4.07422,3.70508 -3.861,0.307 -3.86132,0.30695 -3.86132,-3.49805 10e-4,-0.36 0.002,-0.71912 0.002,-1.07812 0,-1.238 -0.006,-2.47684 0.002,-3.71484 0.003,-0.381 -0.0997,-0.86966 0.53125,-0.84766 0.715,0.0255 1.43402,-0.0269 2.15039,-0.0312 z" style="fill:#757577;fill-opacity:1"/>
		<path fill-rule="evenodd" clip-rule="evenodd" fill="#989898" d="m 485.023,440.666 c 0,2.267 0.024,4.533 -0.017,6.799 -0.01,0.548 0.362,1.424 -0.325,1.593 -0.901,0.221 -1.903,0.09 -2.854,0.015 -0.305,-0.024 -0.22,-0.467 -0.221,-0.734 -0.004,-4.438 0.008,-8.875 -0.014,-13.313 -0.004,-0.646 0.26,-0.75 0.842,-0.823 1.498,-0.188 2.5,0.334 3.419,1.564 1.838,2.459 3.857,4.781 5.812,7.172 0.411,-0.234 0.216,-0.588 0.218,-0.854 0.02,-2.318 0.029,-4.638 0.001,-6.956 -0.008,-0.652 0.176,-0.896 0.872,-0.921 2.552,-0.087 2.551,-0.114 2.551,2.471 0,3.758 -0.025,7.517 0.019,11.274 0.011,0.906 -0.205,1.184 -1.175,1.253 -1.339,0.095 -2.137,-0.446 -2.909,-1.428 -1.92,-2.44 -3.918,-4.819 -5.885,-7.223 -0.112,0.036 -0.222,0.073 -0.334,0.111 z" id="path56" style="fill:#757577;fill-opacity:1"/>
		<path fill-rule="evenodd" clip-rule="evenodd" fill="#989898" d="m 402.906,440.152 c 0,2.858 -0.036,5.366 0.02,7.871 0.021,0.884 -0.218,1.171 -1.132,1.156 -2.299,-0.036 -2.3,0.01 -2.3,-2.248 0,-3.878 0.021,-7.757 -0.017,-11.636 -0.009,-0.828 0.238,-1.024 1.066,-1.111 1.416,-0.149 2.259,0.425 3.089,1.498 1.921,2.483 3.969,4.867 6.182,7.555 0,-2.781 0.049,-5.236 -0.023,-7.688 -0.03,-1.025 0.205,-1.397 1.307,-1.353 2.126,0.087 2.129,0.019 2.129,2.183 0,3.839 -0.031,7.678 0.021,11.516 0.014,0.973 -0.229,1.257 -1.242,1.309 -1.267,0.065 -2.052,-0.38 -2.807,-1.344 -1.967,-2.514 -4.03,-4.951 -6.293,-7.708 z" id="path58" style="fill:#757577;fill-opacity:1"/>
		<path id="path60" d="m 342.80469,461.32227 c -3.936,0.01 -6.42582,1.09179 -8.00781,3.71679 -2.154,3.577 -1.09624,8.20967 2.25976,10.38867 3.736,2.424 9.13855,1.61638 11.56055,-1.76562 1.809,-2.524 2.05908,-5.28506 0.70508,-8.03906 -1.489,-3.027 -4.12958,-4.29878 -6.51758,-4.30078 z m -0.89844,2.95898 c 2.63,0.002 4.59756,2.04539 4.60156,4.77539 0.002,2.751 -1.95056,4.77167 -4.60156,4.76367 -2.694,-0.01 -4.60447,-1.98758 -4.60547,-4.76758 -10e-4,-2.767 1.93647,-4.77348 4.60547,-4.77148 z" style="fill:#757577;fill-opacity:1"/>
		<path id="path62" d="m 496.95312,488.66992 c -2.95834,-0.0468 -5.53878,0.99467 -7.16015,3.82617 -2.966,5.181 0.48645,11.80814 7.18945,11.61914 2.179,0.086 4.12189,-0.56506 5.71289,-2.03906 2.451,-2.275 3.05892,-5.1377 2.04492,-8.2207 -1.004,-3.053 -3.34404,-4.74756 -6.49804,-5.10156 -0.43638,-0.0491 -0.86644,-0.0773 -1.28907,-0.084 z m 0.0547,2.9707 c 2.701,0.034 4.55002,1.99341 4.54102,4.81641 -0.008,2.743 -1.98449,4.75266 -4.64649,4.72266 -2.679,-0.029 -4.56292,-2.03022 -4.54492,-4.82422 0.018,-2.781 1.95939,-4.74784 4.65039,-4.71485 z" style="fill:#757577;fill-opacity:1"/>
		<path id="path64" d="m 375.67383,461.29883 c -2.12111,0.0228 -4.20922,0.74059 -5.66797,2.08984 -2.276,2.104 -3.06459,5.54761 -1.93359,8.47461 1.196,3.095 4.00853,4.89644 7.64453,4.89844 5.558,0.003 9.26807,-4.37938 8.08008,-9.48438 -0.96063,-4.12375 -4.58787,-6.01658 -8.12305,-5.97851 z m 0.14648,2.98047 c 2.686,0.023 4.57841,2.01568 4.56641,4.80468 -0.013,2.823 -1.978,4.78138 -4.75,4.73438 -2.539,-0.043 -4.46989,-2.11592 -4.46289,-4.79492 0.008,-2.718 2.01448,-4.76614 4.64648,-4.74414 z" style="fill:#757577;fill-opacity:1"/>
		<path id="path66" d="m 379.29297,433.93945 c -2.57506,0.0445 -5.04856,1.12478 -6.43359,3 -1.89501,2.568 -2.20365,5.38752 -0.80665,8.22852 1.489,3.026 4.15624,4.25358 6.49024,4.26758 5.751,-0.034 9.25769,-3.36069 9.17969,-7.80469 -0.06,-3.384 -2.17197,-6.21291 -5.41797,-7.25391 -0.9796,-0.31415 -2.00409,-0.45491 -3.01172,-0.4375 z m 0.0215,2.98438 c 0.0804,-0.002 0.16268,-4.2e-4 0.24414,0.002 2.577,0.074 4.58332,2.14756 4.57032,4.72656 -0.013,2.782 -2.02322,4.84722 -4.69922,4.82422 -2.672,-0.022 -4.66996,-2.13843 -4.62696,-4.89844 0.0397,-2.58365 2.01789,-4.59992 4.51172,-4.65429 z" style="fill:#757577;fill-opacity:1"/>
		<path id="path68" d="m 350.02539,488.64648 c -0.56516,-0.003 -1.14258,0.0381 -1.72851,0.11914 -4.495,0.622 -7.01049,4.00658 -6.77149,8.01758 0.271,4.541 3.51681,7.32766 8.13281,7.34766 3.28,-0.005 5.94427,-1.19828 7.44727,-4.23828 1.41,-2.848 1.15461,-5.68275 -0.77539,-8.21875 -1.64044,-2.15556 -3.85564,-3.01321 -6.30469,-3.02735 z m -0.29297,2.99414 c 2.614,-0.021 4.64611,2.04715 4.66211,4.74415 0.016,2.687 -1.97923,4.75792 -4.61523,4.79492 -2.627,0.038 -4.67199,-1.99946 -4.70899,-4.68946 -0.038,-2.769 1.94111,-4.8266 4.66211,-4.84961 z" style="fill:#757577;fill-opacity:1"/>
		<path id="path70" d="m 469.2207,433.96289 c -2.18462,0.006 -4.38148,0.72867 -5.9082,2.19727 -2.188,2.105 -2.92497,5.55248 -1.79297,8.39648 1.221,3.068 4.05214,4.867 8.74414,4.875 2.259,-0.028 4.97011,-1.25586 6.41211,-4.38086 1.361,-2.948 1.01569,-5.80967 -1.07031,-8.38867 -1.44978,-1.79191 -3.90886,-2.70591 -6.38477,-2.69922 z m 0.0391,2.96094 c 2.614,0.018 4.63985,2.1073 4.63085,4.77929 -0.009,2.758 -2.0629,4.81749 -4.7539,4.77149 -2.621,-0.046 -4.59327,-2.13003 -4.57227,-4.83203 0.021,-2.683 2.06432,-4.73475 4.69532,-4.71875 z" style="fill:#757577;fill-opacity:1"/>
		<path fill-rule="evenodd" clip-rule="evenodd" fill="#989898" d="m 339.283,439.293 c 0,-1.4 0.03,-2.801 -0.013,-4.199 -0.022,-0.691 0.234,-0.867 0.898,-0.886 2.683,-0.075 2.68,-0.098 2.683,2.583 10e-4,2.119 -0.037,4.24 0.025,6.358 0.076,2.591 2.166,3.976 4.566,3.081 1.46,-0.544 1.899,-1.761 1.923,-3.155 0.045,-2.559 0.065,-5.12 10e-4,-7.678 -0.024,-0.973 0.294,-1.211 1.219,-1.194 2.344,0.041 2.38,0 2.335,2.324 -0.049,2.555 0.201,5.116 -0.168,7.665 -0.448,3.086 -2.545,5.045 -5.64,5.187 -0.953,0.043 -1.936,0.081 -2.866,-0.09 -2.981,-0.549 -4.802,-2.757 -4.939,-5.918 -0.059,-1.356 -0.01,-2.719 -0.01,-4.078 -0.004,0 -0.009,0 -0.014,0 z" id="path72" style="fill:#757577;fill-opacity:1"/>
		<path fill-rule="evenodd" clip-rule="evenodd" fill="#989898" d="m 401.467,472.039 c 0,0.2 0,0.4 0,0.6 0,2.676 -0.099,2.809 -2.7,3.649 -4.259,1.377 -8.487,0.075 -10.497,-3.23 -2.954,-4.858 0.344,-11.276 6.012,-11.685 2.407,-0.173 4.702,0.089 6.658,1.722 0.651,0.544 0.869,0.993 0.049,1.543 -0.197,0.132 -0.374,0.308 -0.521,0.494 -0.556,0.699 -1.01,0.811 -1.825,0.172 -1.955,-1.534 -4.964,-1.287 -6.596,0.378 -1.519,1.549 -1.696,4.484 -0.315,6.313 1.477,1.957 4.031,2.221 6.069,1.387 0.469,-0.191 0.499,-0.562 0.496,-0.979 -0.007,-0.919 0.025,-1.84 -0.01,-2.758 -0.023,-0.608 0.178,-0.819 0.813,-0.847 2.369,-0.101 2.368,-0.126 2.368,2.283 -0.001,0.318 -0.001,0.638 -0.001,0.958 z" id="path74" style="fill:#757577;fill-opacity:1"/>
		<path id="path76" d="m 424.88672,434.15039 c -0.18547,-0.002 -0.38238,0.007 -0.59375,0.0293 -0.899,0.093 -1.40706,0.25634 -1.78906,1.15234 -1.641,3.853 -3.38022,7.66705 -5.07422,11.49805 -1.043,2.358 -1.03697,2.36017 1.58203,2.32617 0.508,-0.007 1.09666,0.12272 1.22266,-0.61328 0.40799,-2.363 1.94268,-2.88388 4.05468,-2.54688 0.507,0.081 1.0386,0.0137 1.5586,0.0137 2.331,0 2.32665,10e-4 3.22265,2.125 0.193,0.459 0.26442,1.03743 0.98242,1.02343 0.984,-0.019 1.97013,-0.004 3.07813,-0.004 -0.202,-0.519 -0.32828,-0.88914 -0.48828,-1.24414 -1.744,-3.897 -3.59641,-7.75199 -5.19141,-11.70899 -0.56875,-1.40962 -1.26616,-2.0345 -2.56445,-2.05078 z m -0.13477,3.58008 c 0.713,1.722 1.28135,3.15826 1.90235,4.57226 0.317,0.724 0.31947,1.11479 -0.64453,1.05079 -1.105,-0.074 -2.76146,0.34992 -3.18946,-0.20508 -0.556,-0.72 0.57464,-1.94666 0.93164,-2.97266 0.256,-0.738 0.589,-1.45031 1,-2.44531 z" style="fill:#757577;fill-opacity:1"/>
		<path id="path78" d="m 438.59961,488.88281 c -1.435,-0.018 -2.23422,0.40844 -2.57422,1.77344 -0.075,0.305 -0.25086,0.58595 -0.38086,0.87695 -1.799,4.036 -3.59717,8.07052 -5.45117,12.22852 0.287,0.06 0.40353,0.10047 0.51953,0.10547 2.869,0.141 2.88778,0.14806 4.05078,-2.46094 0.238,-0.535 0.53894,-0.6965 1.08594,-0.6875 1.716,0.025 3.43539,0.0512 5.15039,-0.008 0.775,-0.027 1.11081,0.26484 1.38281,0.96484 0.869,2.23 0.89944,2.21917 3.27344,2.20117 0.041,0 0.0821,-0.006 0.12109,0 1.056,0.143 1.11566,-0.2669 0.72266,-1.1289 -1.85,-4.062 -3.71022,-8.12143 -5.44922,-12.23243 -0.511,-1.20799 -1.12117,-1.61681 -2.45117,-1.63281 z m -0.0684,3.55274 c 0.76,1.841 1.40227,3.42795 2.07227,5.00195 0.217,0.508 0.0386,0.63295 -0.44336,0.62695 -1.079,-0.013 -2.15833,-0.0211 -3.23633,0.004 -0.607,0.014 -0.66131,-0.21184 -0.44531,-0.71484 0.66,-1.536 1.29073,-3.08397 2.05273,-4.91797 z" style="fill:#757577;fill-opacity:1"/>
		<path id="path80" d="m 281.95703,488.92383 c -0.14212,7.4e-4 -0.29169,0.003 -0.45312,0.004 -0.651,0.005 -0.98982,0.19765 -1.25782,0.80665 -1.939,4.416 -3.91895,8.81465 -5.87695,13.22265 -0.118,0.265 -0.35639,0.53267 -0.15039,0.88867 0.159,0.011 0.31961,0.007 0.47461,0.0332 1.999,0.341 3.49277,-0.11749 3.88476,-2.39649 0.105,-0.61 0.51296,-0.78258 1.12696,-0.76758 1.715,0.04 3.43639,0.0531 5.15039,-0.006 0.732,-0.025 1.18478,0.2243 1.30078,0.9043 0.349,2.037 1.60133,2.61349 3.48633,2.27149 0.306,-0.056 0.62915,-0.008 1.16015,-0.008 -1.954,-4.359 -3.81201,-8.49967 -5.66601,-12.63867 -0.98813,-2.20687 -1.04783,-2.32555 -3.17969,-2.31445 z m 0.38867,3.52148 c 0.774,1.858 1.44338,3.46146 2.10938,5.06446 0.197,0.473 -0.0919,0.54978 -0.46094,0.55078 -1.115,0.002 -2.2307,-10e-5 -3.3457,0.004 -0.79,0.002 -0.4346,-0.48487 -0.3086,-0.79687 0.608,-1.51 1.24586,-3.00827 2.00586,-4.82227 z" style="fill:#757577;fill-opacity:1"/>
		<path id="path82" d="m 420.44727,461.56641 c -0.712,0 -1.06908,0.23581 -1.33008,0.88281 -0.52,1.294 -1.11364,2.55708 -1.68164,3.83008 -1.381,3.094 -2.77391,6.18311 -4.12891,9.28711 -0.12,0.273 -0.7347,0.77626 0.1543,0.94726 2.271,0.436 3.00723,0.048 3.86523,-2.04101 0.031,-0.074 0.0807,-0.14275 0.0977,-0.21875 0.15,-0.706 0.57201,-0.92839 1.29101,-0.90039 1.436,0.054 2.8826,0.11232 4.3086,-0.0137 1.29,-0.115 2.03364,0.31441 2.30664,1.56641 0.28,1.285 0.96597,1.97133 2.16797,1.61133 0.316,0 0.43764,-5e-5 0.55664,0.002 1.647,-0.002 1.64537,-0.002 0.98437,-1.47851 -1.661,-3.71 -3.32047,-7.41891 -4.98047,-11.12891 -1.063,-2.373 -1.06432,-2.3447 -3.61132,-2.3457 z m 0.80078,3.53125 c 0.756,1.823 1.40226,3.40551 2.07226,4.97851 0.215,0.504 0.0416,0.63591 -0.44336,0.62891 -1.079,-0.015 -2.15832,-0.0221 -3.23633,0.002 -0.607,0.013 -0.65845,-0.20589 -0.43945,-0.71289 0.661,-1.534 1.29088,-3.08148 2.04688,-4.89648 z" style="fill:#757577;fill-opacity:1"/>
		<path id="path84" d="m 506.87695,434.13672 c -0.20094,0.002 -0.41565,0.0178 -0.64453,0.0488 -0.752,0.102 -1.19548,0.21851 -1.52148,0.97851 -1.418,3.301 -2.91386,6.57056 -4.38086,9.85156 -0.473,1.057 -0.93488,2.11893 -1.42188,3.16993 -0.293,0.631 -0.35878,0.97618 0.57422,0.99218 2.534,0.043 2.55267,0.0895 3.51367,-2.22851 0.277,-0.671 0.62325,-0.99694 1.40625,-0.96094 1.477,0.067 2.9665,0.11019 4.4375,-0.008 1.165,-0.095 1.77097,0.32111 2.04297,1.41211 0.325,1.297 0.9346,2.23267 2.3086,1.76367 h 0.68359 c 1.442,-0.003 1.43161,0.003 0.84961,-1.29492 -1.716,-3.824 -3.53913,-7.605 -5.07813,-11.5 -0.60462,-1.5295 -1.36291,-2.23765 -2.76953,-2.22461 z m -0.0117,3.59766 c 0.722,1.73799 1.34408,3.22293 1.95508,4.71093 0.103,0.25 0.16135,0.51849 0.27735,0.89649 -1.354,0 -2.61305,-10e-4 -3.87305,0 -0.381,0.001 -0.63645,-0.0768 -0.43945,-0.55078 0.666,-1.601 1.32007,-3.20765 2.08007,-5.05664 z" style="fill:#757577;fill-opacity:1"/>
		<path fill-rule="evenodd" clip-rule="evenodd" fill="#989898" d="m 301.814,469.033 c 0,-2.117 0.029,-4.235 -0.016,-6.352 -0.017,-0.792 0.157,-1.131 1.043,-1.116 3.115,0.05 6.232,0.064 9.347,-0.004 1.129,-0.025 0.986,0.644 0.95,1.309 -0.035,0.636 0.347,1.504 -0.924,1.461 -1.955,-0.066 -3.915,0.017 -5.871,-0.032 -0.848,-0.021 -1.18,0.282 -1.085,1.11 0.031,0.275 0.038,0.563 -10e-4,0.837 -0.146,1.033 0.229,1.425 1.318,1.362 1.592,-0.092 3.194,-0.002 4.792,-0.033 0.629,-0.013 0.81,0.22 0.833,0.834 0.069,1.868 0.096,1.868 -1.828,1.868 -1.398,0 -2.797,0.024 -4.194,-0.011 -0.674,-0.017 -0.93,0.238 -0.921,0.905 0.042,3.223 -0.331,2.555 2.44,2.61 1.597,0.031 3.197,0.052 4.793,-0.009 1.177,-0.046 0.891,0.76 0.882,1.374 -0.009,0.598 0.336,1.403 -0.86,1.386 -3.275,-0.049 -6.552,-0.032 -9.827,-0.005 -0.688,0.006 -0.892,-0.24 -0.883,-0.904 0.032,-2.196 0.012,-4.393 0.012,-6.59 z" id="path86" style="fill:#757577;fill-opacity:1"/>
		<path fill-rule="evenodd" clip-rule="evenodd" fill="#989898" d="m 278.257,469.005 c 0,-2.159 0.025,-4.318 -0.013,-6.477 -0.013,-0.736 0.24,-0.965 0.966,-0.958 3.158,0.031 6.318,0.055 9.475,-0.006 1.295,-0.025 0.857,0.844 0.902,1.463 0.049,0.667 0.174,1.354 -0.949,1.308 -1.916,-0.08 -3.838,0.011 -5.756,-0.036 -0.85,-0.021 -1.21,0.189 -1.198,1.129 0.028,2.155 -0.021,2.156 2.152,2.156 1.239,0 2.481,0.043 3.717,-0.016 0.805,-0.038 1.138,0.168 1.103,1.047 -0.08,1.979 0.146,1.633 -1.671,1.657 -1.479,0.02 -2.959,0.023 -4.438,-0.005 -0.604,-0.012 -0.862,0.171 -0.849,0.815 0.063,3.288 -0.399,2.642 2.474,2.698 1.559,0.031 3.12,0.046 4.677,-0.011 0.81,-0.03 1.025,0.27 1.003,1.034 -0.06,2.063 0.152,1.691 -1.736,1.706 -2.838,0.021 -5.679,-0.055 -8.515,0.034 -1.157,0.037 -1.404,-0.368 -1.366,-1.424 0.074,-2.034 0.022,-4.075 0.022,-6.114 z" id="path88" style="fill:#757577;fill-opacity:1"/>
		
		<path fill-rule="evenodd" clip-rule="evenodd" fill="#989898" d="m 291.32,449.372 c -1.783,0.077 -3.484,-0.259 -5.1,-1.037 -0.706,-0.341 -1.152,-0.711 -0.555,-1.507 0.069,-0.092 0.099,-0.218 0.131,-0.333 0.318,-1.135 0.777,-1.44 1.959,-0.747 1.341,0.787 2.907,1.101 4.505,0.832 0.875,-0.147 1.839,-0.282 1.923,-1.425 0.082,-1.113 -0.867,-1.295 -1.652,-1.571 -1.466,-0.517 -3.041,-0.666 -4.469,-1.309 -2.618,-1.178 -3.341,-4.144 -1.547,-6.361 0.648,-0.803 1.533,-1.31 2.501,-1.568 2.419,-0.648 4.812,-0.504 7.158,0.419 0.737,0.29 1.045,0.667 0.598,1.425 -0.141,0.237 -0.254,0.504 -0.321,0.771 -0.204,0.807 -0.582,0.982 -1.352,0.569 -1.229,-0.658 -2.578,-0.789 -3.958,-0.681 -0.405,0.032 -0.788,0.109 -1.152,0.29 -0.542,0.271 -0.89,0.664 -0.884,1.304 0.006,0.664 0.409,1.041 0.979,1.211 1.564,0.469 3.162,0.833 4.707,1.354 2.572,0.865 3.623,3.017 2.659,5.373 -0.828,2.024 -2.6,2.691 -4.573,2.98 -0.51,0.074 -1.038,0.011 -1.557,0.011 z" id="path92" style="fill:#757577;fill-opacity:1"/>
		<path fill-rule="evenodd" clip-rule="evenodd" fill="#989898" d="m 324.95,476.762 c -3.704,-0.004 -6.493,-1.783 -7.703,-4.827 -1.188,-2.987 -0.379,-6.429 2.035,-8.654 2.846,-2.624 8.294,-2.625 11.157,-0.047 0.609,0.548 0.624,0.925 -0.021,1.385 -0.193,0.139 -0.378,0.302 -0.528,0.485 -0.613,0.749 -1.084,0.978 -1.998,0.172 -1.789,-1.574 -4.656,-1.273 -6.308,0.444 -1.63,1.696 -1.711,4.694 -0.176,6.479 1.548,1.8 4.469,2.291 6.267,0.771 1.128,-0.954 1.681,-0.597 2.483,0.238 1,1.039 1.05,1.084 -0.078,1.95 -1.549,1.19 -3.319,1.698 -5.13,1.604 z" id="path94" style="fill:#757577;fill-opacity:1"/>
		<path fill-rule="evenodd" clip-rule="evenodd" fill="#989898" d="m 480.063,488.703 c 2.139,-0.084 3.992,0.601 5.577,2.044 0.394,0.359 0.548,0.653 0.031,1.025 -0.226,0.161 -0.438,0.356 -0.609,0.574 -0.704,0.896 -1.254,1.023 -2.273,0.172 -1.846,-1.543 -4.836,-1.057 -6.371,0.78 -1.51,1.806 -1.392,4.8 0.256,6.487 1.654,1.693 4.523,1.924 6.321,0.365 0.757,-0.656 1.229,-0.667 1.822,0.065 0.2,0.246 0.433,0.481 0.691,0.661 0.74,0.514 0.472,0.895 -0.068,1.376 -2.526,2.252 -7.017,2.563 -10.094,0.663 -2.9,-1.79 -4.224,-5.364 -3.249,-8.778 0.95,-3.328 3.929,-5.423 7.726,-5.434 0.078,0.002 0.158,0.002 0.24,0 z" id="path96" style="fill:#757577;fill-opacity:1"/>
		<path fill-rule="evenodd" clip-rule="evenodd" fill="#989898" d="m 376.922,504.116 c -3.55,-0.002 -6.401,-1.768 -7.553,-4.676 -1.234,-3.122 -0.525,-6.469 1.845,-8.703 2.924,-2.756 8.422,-2.782 11.344,-0.076 0.465,0.431 0.662,0.766 0.027,1.19 -0.197,0.131 -0.364,0.315 -0.519,0.498 -0.669,0.792 -1.192,1.066 -2.21,0.219 -1.931,-1.609 -4.824,-1.156 -6.458,0.765 -1.486,1.75 -1.389,4.725 0.212,6.38 1.717,1.775 4.556,2.03 6.411,0.418 0.789,-0.686 1.243,-0.619 1.821,0.105 0.173,0.216 0.388,0.406 0.608,0.576 0.623,0.479 0.639,0.866 -0.003,1.411 -1.607,1.362 -3.439,1.975 -5.525,1.893 z" id="path98" style="fill:#757577;fill-opacity:1"/>
		<path fill-rule="evenodd" clip-rule="evenodd" fill="#989898" d="m 266.274,488.705 c 2.047,-0.083 3.851,0.523 5.401,1.879 0.516,0.451 0.856,0.875 0.029,1.343 -0.067,0.038 -0.122,0.104 -0.171,0.167 -0.776,0.975 -1.422,1.304 -2.658,0.341 -1.883,-1.467 -4.844,-0.889 -6.268,0.9 -1.433,1.802 -1.327,4.748 0.232,6.409 1.58,1.684 4.397,1.886 6.372,0.506 0.351,-0.244 0.601,-0.976 1.148,-0.598 0.682,0.472 1.277,1.087 1.834,1.708 0.224,0.249 -0.151,0.487 -0.331,0.681 -1.845,1.987 -5.949,2.719 -8.862,1.588 -3.025,-1.176 -4.826,-3.65 -4.9,-6.732 -0.12,-5.023 3.047,-8.198 8.174,-8.192 z" id="path100" style="fill:#757577;fill-opacity:1"/>
		<path fill-rule="evenodd" clip-rule="evenodd" fill="#989898" d="m 443.225,449.432 c -3.279,-0.068 -5.98,-1.289 -7.338,-4.399 -1.282,-2.937 -1.031,-5.85 1.103,-8.426 2.682,-3.237 8.91,-3.564 11.912,-0.642 0.441,0.43 0.7,0.792 0.005,1.199 -0.102,0.06 -0.199,0.141 -0.271,0.233 -0.777,0.996 -1.434,1.277 -2.646,0.317 -1.799,-1.423 -4.775,-0.88 -6.183,0.815 -1.523,1.836 -1.456,4.751 0.148,6.486 1.556,1.684 4.369,2.052 6.2,0.552 1.033,-0.847 1.523,-0.602 2.29,0.212 1.122,1.19 1.187,1.182 -0.146,2.154 -1.502,1.099 -3.205,1.576 -5.074,1.499 z" id="path102" style="fill:#757577;fill-opacity:1"/>
		<path fill-rule="evenodd" clip-rule="evenodd" fill="#989898" d="m 438.438,461.708 c 0.242,-0.079 0.279,-0.102 0.317,-0.104 3.303,-0.154 3.301,-0.153 4.989,2.703 0.527,0.894 1.063,1.783 1.604,2.668 0.712,1.161 0.721,1.158 1.4,0.034 0.889,-1.47 1.829,-2.911 2.646,-4.42 0.419,-0.775 0.907,-1.113 1.785,-1.02 0.697,0.073 1.408,0.015 2.327,0.015 -1.509,2.495 -2.839,4.853 -4.33,7.104 -1.078,1.629 -1.699,3.297 -1.457,5.263 0.072,0.591 -0.013,1.198 0.016,1.797 0.027,0.563 -0.201,0.74 -0.764,0.78 -2.811,0.2 -2.906,0.213 -2.776,-2.557 0.094,-1.969 -0.4,-3.625 -1.495,-5.254 -1.506,-2.241 -2.819,-4.613 -4.262,-7.009 z" id="path104" style="fill:#757577;fill-opacity:1"/>
		
		<path fill-rule="evenodd" clip-rule="evenodd" fill="#999999" d="m 362.399,434.224 c 1.836,0 3.675,0.051 5.509,-0.021 0.932,-0.036 1.228,0.299 1.108,1.166 -0.038,0.274 -0.03,0.561 -0.001,0.837 0.07,0.665 -0.182,0.94 -0.875,0.906 -0.916,-0.046 -1.844,0.06 -2.753,-0.03 -1.007,-0.101 -1.181,0.332 -1.168,1.226 0.047,3.193 -0.017,6.39 0.04,9.583 0.017,0.956 -0.185,1.322 -1.229,1.293 -2.359,-0.067 -2.361,-0.01 -2.361,-2.426 0,-2.756 -0.065,-5.513 0.031,-8.265 0.042,-1.209 -0.365,-1.534 -1.484,-1.409 -0.789,0.088 -1.598,-0.021 -2.394,0.028 -0.721,0.045 -0.985,-0.193 -0.967,-0.942 0.059,-2.374 -0.184,-1.906 1.871,-1.94 1.558,-0.026 3.116,-0.006 4.673,-0.006 z" id="path108" style="fill:#757577;fill-opacity:1"/>
		<path fill-rule="evenodd" clip-rule="evenodd" fill="#999999" d="m 306.404,434.224 c 1.837,0 3.674,0.024 5.51,-0.013 0.695,-0.014 1.065,0.151 0.972,0.923 -0.044,0.354 -0.037,0.721 -0.001,1.076 0.067,0.668 -0.181,0.936 -0.874,0.901 -0.956,-0.047 -1.919,0.04 -2.873,-0.026 -0.84,-0.059 -1.09,0.229 -1.078,1.071 0.046,3.273 -0.017,6.548 0.041,9.821 0.017,0.946 -0.251,1.221 -1.197,1.201 -2.392,-0.049 -2.393,-0.002 -2.393,-2.39 -0.001,-2.875 -0.029,-5.751 0.018,-8.625 0.013,-0.836 -0.232,-1.143 -1.079,-1.079 -0.873,0.066 -1.757,-0.021 -2.633,0.026 -0.723,0.039 -1.044,-0.213 -0.965,-0.952 0.034,-0.315 0.038,-0.643 -10e-4,-0.957 -0.102,-0.823 0.297,-1.008 1.044,-0.992 1.835,0.042 3.672,0.015 5.509,0.015 z" id="path110" style="fill:#757577;fill-opacity:1"/>
		<path fill-rule="evenodd" clip-rule="evenodd" fill="#989898" d="m 327.975,443.125 c 0,-1.64 -0.054,-3.281 0.021,-4.917 0.042,-0.931 -0.288,-1.189 -1.165,-1.123 -0.915,0.069 -1.84,-0.021 -2.758,0.027 -0.691,0.035 -0.896,-0.23 -0.881,-0.9 0.054,-2.47 -0.217,-1.958 1.938,-1.979 3.318,-0.033 6.638,0.02 9.955,-0.027 0.883,-0.013 1.186,0.224 1.16,1.138 -0.048,1.755 0.006,1.757 -1.725,1.757 -3.097,10e-4 -3.097,10e-4 -3.097,3.12 0,2.64 -0.025,5.278 0.015,7.917 0.012,0.775 -0.222,1.03 -1.013,1.038 -2.452,0.023 -2.451,0.055 -2.451,-2.332 0.001,-1.24 0.001,-2.48 0.001,-3.719 z" id="path112" style="fill:#757577;fill-opacity:1"/>
		<path fill-rule="evenodd" clip-rule="evenodd" fill="#989898" d="m 454.317,488.945 c 1.796,0 3.593,0.032 5.388,-0.016 0.764,-0.021 1.128,0.187 1.019,0.995 -0.036,0.274 -0.037,0.562 0.001,0.836 0.114,0.837 -0.217,1.138 -1.063,1.075 -0.913,-0.067 -1.838,0.032 -2.752,-0.029 -0.797,-0.054 -1.016,0.243 -1.007,1.018 0.036,3.272 -0.024,6.546 0.039,9.817 0.02,1.001 -0.263,1.289 -1.262,1.26 -2.182,-0.065 -2.184,-0.012 -2.184,-2.249 0,-2.874 -0.032,-5.748 0.019,-8.62 0.017,-0.91 -0.189,-1.322 -1.185,-1.229 -0.909,0.085 -1.835,-0.015 -2.751,0.028 -0.688,0.032 -0.949,-0.24 -0.888,-0.907 0.029,-0.316 0.036,-0.642 -10e-4,-0.956 -0.092,-0.771 0.199,-1.059 0.998,-1.038 1.876,0.047 3.753,0.015 5.629,0.015 z" id="path114" style="fill:#757577;fill-opacity:1"/>
		<path fill-rule="evenodd" clip-rule="evenodd" fill="#989898" d="m 387.015,496.417 c 0,-2.195 0.02,-4.393 -0.012,-6.588 -0.01,-0.672 0.214,-0.88 0.89,-0.901 2.572,-0.083 2.571,-0.107 2.571,2.455 0,2.835 0.036,5.671 -0.021,8.505 -0.019,0.92 0.286,1.161 1.165,1.131 1.795,-0.063 3.595,0.023 5.39,-0.037 0.855,-0.028 1.165,0.263 1.059,1.09 -0.04,0.314 -0.029,0.64 -0.002,0.957 0.051,0.599 -0.155,0.861 -0.803,0.856 -3.154,-0.022 -6.31,-0.023 -9.464,0.001 -0.674,0.005 -0.785,-0.313 -0.78,-0.88 0.017,-2.196 0.007,-4.392 0.007,-6.589 z" id="path116" style="fill:#757577;fill-opacity:1"/>
		<path fill-rule="evenodd" clip-rule="evenodd" fill="#989898" d="m 518.498,441.683 c -0.001,-2.12 0.029,-4.24 -0.016,-6.359 -0.017,-0.8 0.179,-1.122 1.054,-1.121 2.383,0.004 2.383,-0.037 2.383,2.396 0,2.839 0.043,5.681 -0.024,8.519 -0.023,0.98 0.303,1.216 1.221,1.182 1.757,-0.065 3.52,0.017 5.278,-0.035 0.8,-0.023 1.097,0.254 0.999,1.032 -0.039,0.315 -0.031,0.643 -10e-4,0.959 0.064,0.657 -0.172,0.92 -0.87,0.913 -3.04,-0.029 -6.08,-0.034 -9.119,0.002 -0.785,0.01 -0.924,-0.331 -0.915,-1.008 0.028,-2.16 0.01,-4.32 0.01,-6.48 z" id="path118" style="fill:#757577;fill-opacity:1"/>
		<path fill-rule="evenodd" clip-rule="evenodd" fill="#989898" d="m 354.338,468.978 c 0,-2.16 0.017,-4.32 -0.011,-6.479 -0.009,-0.649 0.175,-0.903 0.874,-0.931 2.558,-0.1 2.557,-0.127 2.557,2.456 0,2.8 0.049,5.602 -0.024,8.399 -0.028,1.036 0.315,1.281 1.287,1.238 1.716,-0.075 3.44,0.022 5.158,-0.039 0.865,-0.031 1.15,0.285 1.055,1.1 -0.042,0.355 -0.023,0.72 -0.005,1.079 0.025,0.499 -0.168,0.722 -0.692,0.72 -3.16,-0.013 -6.319,-0.019 -9.479,0.002 -0.73,0.005 -0.723,-0.435 -0.722,-0.945 0.005,-2.201 0.002,-4.4 0.002,-6.6 z" id="path120" style="fill:#757577;fill-opacity:1"/>
		
		
		
		<path fill-rule="evenodd" clip-rule="evenodd" fill="#999999" d="m 337.358,496.532 c -10e-4,2.157 -0.022,4.314 0.013,6.471 0.011,0.683 -0.224,0.871 -0.893,0.891 -2.689,0.077 -2.688,0.101 -2.688,-2.57 0,-3.755 0.029,-7.511 -0.021,-11.265 -0.013,-0.912 0.268,-1.146 1.153,-1.136 2.435,0.031 2.436,-0.01 2.436,2.456 0,1.717 0,3.435 0,5.153 z" id="path128" style="fill:#757577;fill-opacity:1"/>
		<path fill-rule="evenodd" clip-rule="evenodd" fill="#999999" d="m 258.91,441.569 c 0,-2.117 0.031,-4.234 -0.016,-6.351 -0.018,-0.795 0.25,-1.009 1.028,-1.013 2.556,-0.014 2.556,-0.045 2.556,2.453 0,3.795 -0.028,7.59 0.021,11.384 0.012,0.903 -0.248,1.149 -1.142,1.137 -2.447,-0.035 -2.447,0.007 -2.447,-2.457 0,-1.718 0,-3.435 0,-5.153 z" id="path130" style="fill:#757577;fill-opacity:1"/>
		<path fill-rule="evenodd" clip-rule="evenodd" fill="#999999" d="m 456.878,441.812 c 0,2.157 -0.022,4.314 0.013,6.471 0.012,0.684 -0.224,0.871 -0.893,0.89 -2.688,0.078 -2.688,0.101 -2.688,-2.57 0,-3.755 0.029,-7.511 -0.021,-11.265 -0.012,-0.913 0.27,-1.146 1.154,-1.135 2.435,0.031 2.436,-0.01 2.436,2.456 0,1.717 0,3.435 -0.001,5.153 z" id="path132" style="fill:#757577;fill-opacity:1"/>
		<path fill-rule="evenodd" clip-rule="evenodd" fill="#999999" d="m 467.678,496.409 c 0,2.197 -0.021,4.395 0.013,6.591 0.011,0.679 -0.216,0.874 -0.889,0.894 -2.692,0.079 -2.691,0.103 -2.691,-2.567 0,-3.755 0.028,-7.511 -0.021,-11.265 -0.012,-0.907 0.26,-1.149 1.15,-1.139 2.438,0.031 2.438,-0.01 2.438,2.453 10e-4,1.677 10e-4,3.355 0,5.033 z" id="path134" style="fill:#757577;fill-opacity:1"/>
		<path fill-rule="evenodd" clip-rule="evenodd" fill="#999999" d="m 316.242,441.674 c 0,-2.117 0.049,-4.236 -0.021,-6.351 -0.031,-0.93 0.286,-1.133 1.157,-1.12 2.433,0.033 2.433,-0.006 2.433,2.47 0,3.715 -0.033,7.431 0.022,11.145 0.015,1 -0.167,1.41 -1.291,1.368 -2.297,-0.085 -2.3,-0.017 -2.3,-2.359 0,-1.718 0,-3.435 0,-5.153 z" id="path136" style="fill:#757577;fill-opacity:1"/>
		<path fill-rule="evenodd" clip-rule="evenodd" fill="#999999" d="m 401.471,496.289 c 0,-2.117 0.03,-4.234 -0.017,-6.351 -0.018,-0.796 0.251,-1.009 1.029,-1.013 2.556,-0.013 2.555,-0.045 2.555,2.454 0,3.794 -0.028,7.59 0.021,11.384 0.012,0.903 -0.249,1.148 -1.143,1.136 -2.446,-0.035 -2.446,0.007 -2.446,-2.457 10e-4,-1.718 10e-4,-3.436 10e-4,-5.153 z" id="path138" style="fill:#757577;fill-opacity:1"/>
		<path fill-rule="evenodd" clip-rule="evenodd" fill="#989898" d="m 409.664,469.05 c -10e-4,2.12 -0.028,4.24 0.014,6.359 0.017,0.789 -0.16,1.129 -1.045,1.128 -2.39,-0.002 -2.39,0.04 -2.39,-2.388 0,-3.8 0.021,-7.6 -0.017,-11.398 -0.008,-0.825 0.111,-1.211 1.086,-1.193 2.351,0.042 2.352,-0.013 2.352,2.332 0,1.721 0,3.441 0,5.16 z" id="path140" style="fill:#757577;fill-opacity:1"/>
		<path fill-rule="evenodd" clip-rule="evenodd" fill="#d1e6f5" d="m 214.247,383.72 c 0.024,3.266 0.173,3.025 -3.068,3.011 -0.519,-0.002 -1.038,0.019 -1.556,-0.007 -0.845,-0.042 -1.333,-0.517 -1.368,-1.35 -0.043,-1.035 -0.061,-2.077 0.005,-3.11 0.064,-1.008 0.574,-1.607 1.701,-1.543 0.915,0.052 1.836,0.052 2.751,0 1.147,-0.064 1.617,0.446 1.54,1.563 -0.033,0.477 -0.006,0.957 -0.005,1.436 z" id="path142"/>
		<path fill-rule="evenodd" clip-rule="evenodd" fill="#d1e6f5" d="m 188.08,491.729 c -0.037,2.647 0.642,3.083 -2.994,3.002 -0.438,-0.01 -0.877,0.005 -1.316,-0.003 -1.206,-0.021 -1.667,-0.463 -1.686,-1.642 -0.015,-0.957 -0.016,-1.914 0.001,-2.871 0.017,-0.958 0.525,-1.467 1.484,-1.48 1.037,-0.016 2.074,0.021 3.11,-0.012 1.031,-0.032 1.458,0.448 1.405,1.451 -0.026,0.517 -0.004,1.036 -0.004,1.555 z" id="path144"/>
		<path fill-rule="evenodd" clip-rule="evenodd" fill="#d1e6f5" d="m 152.689,499.524 c 2.625,0.036 3.05,-0.621 2.999,3.002 -0.042,2.992 -0.018,3.002 -3,3.002 -0.438,0 -0.876,0.007 -1.314,-0.001 -1.208,-0.021 -1.671,-0.46 -1.69,-1.633 -0.016,-0.955 0.032,-1.912 -0.013,-2.866 -0.05,-1.061 0.381,-1.57 1.466,-1.508 0.515,0.029 1.034,0.005 1.552,0.004 z" id="path146"/>
		<path fill-rule="evenodd" clip-rule="evenodd" fill="#d1e6f5" d="m 225.047,439.137 c 0.021,3.25 0.21,3.046 -3.035,3.034 -2.932,-0.011 -2.969,-0.04 -2.969,-3.03 0,-0.438 -0.02,-0.877 0.005,-1.313 0.064,-1.17 0.553,-1.643 1.706,-1.655 0.916,-0.011 1.833,0.038 2.747,-0.013 1.129,-0.063 1.633,0.413 1.552,1.544 -0.035,0.475 -0.007,0.956 -0.006,1.433 z" id="path148"/>
		<path fill-rule="evenodd" clip-rule="evenodd" fill="#d1e6f5" d="m 222.83,412.884 c 3.086,-0.026 2.949,-0.174 2.933,2.899 -0.016,3.105 -0.003,3.105 -3.133,3.105 -0.478,0 -0.964,0.051 -1.432,-0.019 -0.866,-0.13 -1.483,-0.526 -1.445,-1.554 0.036,-0.955 0.048,-1.914 -0.003,-2.867 -0.06,-1.114 0.38,-1.65 1.527,-1.571 0.515,0.037 1.035,0.007 1.553,0.007 z" id="path150"/>
		<path fill-rule="evenodd" clip-rule="evenodd" fill="#d1e6f5" d="m 222.742,434.73 c -2.748,0 -2.766,0 -2.743,-2.723 0.026,-3.134 -0.639,-3.342 3.306,-3.276 0.278,0.005 0.557,-10e-4 0.836,0.001 1.37,0.01 1.829,0.465 1.854,1.865 0.015,0.796 0.01,1.592 0.001,2.389 -0.014,1.283 -0.445,1.723 -1.702,1.743 -0.517,0.008 -1.035,0.001 -1.552,0.001 z" id="path152"/>
		<path fill-rule="evenodd" clip-rule="evenodd" fill="#d1e6f5" d="m 219.185,396.563 c 3.194,-0.026 2.989,-0.17 2.978,2.991 -0.011,2.991 -0.025,3.014 -3.002,3.014 -0.4,0 -0.8,0.01 -1.199,-0.002 -1.32,-0.041 -1.789,-0.515 -1.799,-1.815 -0.006,-0.799 -0.007,-1.599 0,-2.398 0.014,-1.548 0.255,-1.783 1.823,-1.789 0.399,-0.001 0.799,-0.001 1.199,-0.001 z" id="path154"/>
		<path fill-rule="evenodd" clip-rule="evenodd" fill="#d1e6f5" d="m 205.178,477.93 c -3.095,0.025 -2.957,0.19 -2.941,-2.903 0.016,-3.096 0.003,-3.096 3.119,-3.096 0.439,0 0.878,0.002 1.318,0 1.025,-0.004 1.556,0.502 1.563,1.531 0.007,0.879 0.006,1.758 0.001,2.636 -0.009,1.428 -0.413,1.822 -1.862,1.832 -0.399,0.003 -0.799,0 -1.198,0 z" id="path156"/>
		<path fill-rule="evenodd" clip-rule="evenodd" fill="#d1e6f5" d="m 223.36,446.757 c 0.033,3.01 0.15,2.872 -2.864,2.856 -3.134,-0.016 -3.134,-0.004 -3.134,-3.163 0,-0.399 0.022,-0.8 -0.004,-1.198 -0.072,-1.078 0.56,-1.55 1.5,-1.62 0.993,-0.073 1.996,-0.025 2.994,-0.018 0.961,0.009 1.473,0.505 1.504,1.466 0.019,0.559 0.004,1.119 0.004,1.677 z" id="path158"/>
		<path fill-rule="evenodd" clip-rule="evenodd" fill="#d1e6f5" d="m 189.274,487.175 c 0.04,-2.655 -0.633,-3.063 3.007,-3.012 2.979,0.041 2.998,0.025 2.997,3.023 0,0.439 0.019,0.881 -0.004,1.319 -0.061,1.172 -0.552,1.649 -1.708,1.662 -0.959,0.01 -1.919,-0.025 -2.877,0.009 -1.029,0.036 -1.47,-0.435 -1.419,-1.444 0.026,-0.517 0.004,-1.037 0.004,-1.557 z" id="path160"/>
		<path fill-rule="evenodd" clip-rule="evenodd" fill="#d1e6f5" d="m 177.713,498.81 c -2.989,0.035 -2.875,0.141 -2.838,-2.888 0.035,-2.851 -0.633,-3.189 3.139,-3.112 0.399,0.009 0.801,0.023 1.198,-0.003 1.147,-0.076 1.565,0.6 1.658,1.596 0.037,0.396 0.008,0.799 0.008,1.198 0,3.209 0,3.209 -3.165,3.209 z" id="path162"/>
		<path fill-rule="evenodd" clip-rule="evenodd" fill="#d1e6f5" d="m 213.04,391.803 c -0.027,-3.069 -0.188,-2.956 2.917,-2.917 2.743,0.034 3.166,-0.652 3.083,3.039 -0.011,0.479 0.02,0.959 -0.01,1.436 -0.059,0.939 -0.583,1.47 -1.517,1.516 -0.836,0.042 -1.675,0.02 -2.513,0.01 -1.541,-0.017 -1.957,-0.448 -1.96,-2.006 0,-0.36 0,-0.719 0,-1.078 z" id="path164"/>
		<path fill-rule="evenodd" clip-rule="evenodd" fill="#d1e6f5" d="m 199.806,372.811 c -2.981,0.032 -2.891,0.159 -2.852,-2.864 0.037,-2.852 -0.638,-3.214 3.106,-3.137 0.438,0.009 0.878,-0.015 1.316,0.007 0.997,0.052 1.528,0.59 1.576,1.586 0.02,0.398 0.005,0.798 0.005,1.197 0.001,3.211 0.001,3.211 -3.151,3.211 z" id="path166"/>
		<path fill-rule="evenodd" clip-rule="evenodd" fill="#d1e6f5" d="m 210.149,465.451 c 3.13,0 3.13,0 3.129,3.188 0,0.519 0.037,1.04 -0.013,1.554 -0.07,0.72 -0.512,1.199 -1.224,1.236 -1.153,0.062 -2.314,0.066 -3.466,0.001 -0.82,-0.047 -1.284,-0.567 -1.292,-1.42 -0.009,-0.916 -0.008,-1.833 -10e-4,-2.75 0.011,-1.565 0.251,-1.805 1.792,-1.809 0.358,-0.001 0.717,0 1.075,0 z" id="path168"/>
		<path fill-rule="evenodd" clip-rule="evenodd" fill="#d1e6f5" d="m 211.833,461.198 c -0.024,-3.095 -0.189,-2.967 2.903,-2.95 3.079,0.017 3.103,0.028 3.101,3.176 0,0.399 0.033,0.805 -0.019,1.198 -0.142,1.078 -0.59,1.782 -1.872,1.646 -0.869,-0.093 -1.759,-0.053 -2.636,-0.009 -1.089,0.054 -1.547,-0.434 -1.482,-1.502 0.032,-0.518 0.006,-1.04 0.005,-1.559 z" id="path170"/>
		<path fill-rule="evenodd" clip-rule="evenodd" fill="#d1e6f5" d="m 199.212,484.417 c -3.189,0.027 -2.986,0.171 -2.974,-2.983 0.011,-2.994 0.028,-3.021 2.984,-3.021 0.438,0 0.878,-0.017 1.316,0.004 1.15,0.053 1.658,0.554 1.695,1.709 0.027,0.836 0.012,1.675 0.004,2.513 -0.015,1.534 -0.263,1.772 -1.829,1.778 -0.398,0.001 -0.797,0 -1.196,0 z" id="path172"/>
		<path fill-rule="evenodd" clip-rule="evenodd" fill="#d2e6f5" d="m 221.24,410.491 c -3.058,0.024 -2.946,0.205 -2.93,-2.897 0.016,-3.101 0.003,-3.101 3.099,-3.101 0.398,0 0.796,-0.014 1.193,0.003 1.155,0.049 1.669,0.543 1.71,1.687 0.029,0.834 0.012,1.671 0.005,2.507 -0.011,1.363 -0.426,1.784 -1.763,1.8 -0.438,0.005 -0.876,10e-4 -1.314,10e-4 z" id="path174"/>
		<path fill-rule="evenodd" clip-rule="evenodd" fill="#d1e6f5" d="m 205.437,374.01 c 0.44,0 0.88,-0.006 1.319,0.001 1.29,0.02 1.708,0.437 1.722,1.732 0.009,0.919 0.009,1.839 -0.001,2.759 -0.01,0.963 -0.509,1.482 -1.47,1.501 -1.039,0.021 -2.08,0.027 -3.119,-0.002 -0.909,-0.026 -1.382,-0.545 -1.402,-1.444 -0.02,-0.879 -0.008,-1.759 -0.004,-2.639 0.006,-1.582 0.317,-1.897 1.875,-1.908 0.36,-0.002 0.72,0 1.08,0 z" id="path176"/>
		<path fill-rule="evenodd" clip-rule="evenodd" fill="#d1e6f5" d="m 173.44,498.697 c 0,2.993 0,2.993 -2.949,2.993 -0.4,0 -0.8,0.003 -1.2,0 -1.441,-0.011 -1.841,-0.408 -1.849,-1.848 -0.005,-0.84 0.006,-1.68 -0.002,-2.52 -0.011,-1.076 0.493,-1.636 1.589,-1.632 0.879,0.004 1.759,-0.006 2.639,0.002 1.349,0.013 1.759,0.433 1.772,1.805 0.003,0.401 0,0.8 0,1.2 z" id="path178"/>
		<path fill-rule="evenodd" clip-rule="evenodd" fill="#d1e6f5" d="m 220.967,453.93 c 0.032,3.01 0.15,2.908 -2.842,2.891 -3.162,-0.018 -3.162,-0.004 -3.162,-3.178 0,-0.399 -0.011,-0.8 0.004,-1.198 0.041,-1.063 0.615,-1.603 1.665,-1.628 0.758,-0.019 1.518,-0.009 2.277,-0.003 1.637,0.012 2.054,0.427 2.059,2.038 0,0.359 -10e-4,0.719 -10e-4,1.078 z" id="path180"/>
		<path fill-rule="evenodd" clip-rule="evenodd" fill="#d1e6f5" d="m 226.007,423.849 c 0.027,3.177 0.172,2.96 -2.993,2.969 -2.911,0.008 -2.821,0.103 -2.779,-2.822 0.042,-2.945 -0.661,-3.259 3.171,-3.185 0.239,0.005 0.479,0 0.718,0.001 1.657,0.011 1.878,0.228 1.883,1.841 0.001,0.398 0,0.798 0,1.196 z" id="path182"/>
		<path fill-rule="evenodd" clip-rule="evenodd" fill="#d1e6f5" d="m 165.047,501 c 0,3.089 0,3.089 -3.153,3.088 -0.398,0 -0.806,0.047 -1.194,-0.019 -0.866,-0.145 -1.473,-0.542 -1.435,-1.569 0.04,-1.074 0.007,-2.152 0.011,-3.229 0.002,-0.778 0.398,-1.18 1.178,-1.184 1.036,-0.006 2.074,0.03 3.109,-0.013 1.073,-0.044 1.558,0.415 1.489,1.49 -0.031,0.478 -0.006,0.957 -0.005,1.436 z" id="path184"/>
		<path fill-rule="evenodd" clip-rule="evenodd" fill="#999999" d="m 442.789,484.791 c -1.836,1.261 -3.09,3.682 -5.912,2.889 0.839,-2.228 2.713,-3.199 5.912,-2.889 z" id="path186"/>
		<path fill-rule="evenodd" clip-rule="evenodd" fill="#999999" d="m 406.166,460.292 c 1.543,-2.075 3.146,-3.889 6.138,-2.829 -1.884,1.25 -3.173,3.672 -6.138,2.829 z" id="path188" style="fill:#757577;fill-opacity:1"/>
		
		
		
		
		
		
		
		
		
		
		
		
		
		
		
	</g>
</g>
</svg>